<?xml version="1.0" encoding="utf-8"?>
<!-- Generated by IcoMoon.io -->
<!DOCTYPE svg PUBLIC "-//W3C//DTD SVG 1.1//EN" "http://www.w3.org/Graphics/SVG/1.1/DTD/svg11.dtd">
<svg version="1.1" xmlns="http://www.w3.org/2000/svg" xmlns:xlink="http://www.w3.org/1999/xlink" width="26" height="28" viewBox="0 0 26 28">
<path fill="#ffffff" d="M8.703 20h9.297v-9.297zM8 19.297l9.297-9.297h-9.297v9.297zM26 20.5v3q0 0.219-0.141 0.359t-0.359 0.141h-3.5v3.5q0 0.219-0.141 0.359t-0.359 0.141h-3q-0.219 0-0.359-0.141t-0.141-0.359v-3.5h-13.5q-0.219 0-0.359-0.141t-0.141-0.359v-13.5h-3.5q-0.219 0-0.359-0.141t-0.141-0.359v-3q0-0.219 0.141-0.359t0.359-0.141h3.5v-3.5q0-0.219 0.141-0.359t0.359-0.141h3q0.219 0 0.359 0.141t0.141 0.359v3.5h13.297l3.844-3.859q0.156-0.141 0.359-0.141t0.359 0.141q0.141 0.156 0.141 0.359t-0.141 0.359l-3.859 3.844v13.297h3.5q0.219 0 0.359 0.141t0.141 0.359z"></path>
</svg>
